<svg width="67" height="67" viewBox="0 0 67 67" fill="none" xmlns="http://www.w3.org/2000/svg">
<path d="M38.9164 52.566C49.2003 52.566 54.3437 52.566 57.5371 49.3699C60.7333 46.1764 60.7333 41.033 60.7333 30.7491C60.7333 20.4651 60.7333 15.3218 57.5371 12.1283C54.3437 8.93213 49.2003 8.93213 38.9164 8.93213H28.0079C17.7239 8.93213 12.5806 8.93213 9.3871 12.1283C6.19092 15.3218 6.19092 20.4651 6.19092 30.7491C6.19092 41.033 6.19092 46.1764 9.3871 49.3699C11.1679 51.1534 13.5541 51.9415 17.0994 52.2879" stroke="white" stroke-width="5.45424" stroke-linecap="round" stroke-linejoin="round"/>
<path d="M33.4621 40.294V41.6575M28.0078 23.8876C29.3714 21.1878 30.7349 19.8406 33.4621 19.8406C36.86 19.8406 38.9163 22.5377 38.9163 25.2348C38.9163 27.9319 37.5527 28.0519 33.4621 30.7491V33.4762L28.0078 23.8876Z" stroke="white" stroke-width="5.45424" stroke-linecap="round"/>
<path d="M38.9164 52.566C35.5457 52.566 31.8314 53.9296 28.4416 55.6886C22.9928 58.5166 20.2684 59.932 18.9267 59.0293C17.5849 58.1293 17.8385 55.334 18.3485 49.7462L18.4631 48.4753" stroke="white" stroke-width="5.45424" stroke-linecap="round"/>
</svg>
