<svg width="53" height="53" viewBox="0 0 53 53" fill="none" xmlns="http://www.w3.org/2000/svg">
<path d="M32.7374 22.2231C34.8519 22.2231 36.568 23.9392 36.568 26.0536V36.4486C36.568 39.0615 35.53 41.5675 33.6823 43.4151C31.8347 45.2627 29.3288 46.3007 26.7158 46.3007C24.1029 46.3007 21.597 45.2627 19.7493 43.4151C17.9017 41.5675 16.8637 39.0615 16.8637 36.4486V26.0536C16.8637 23.9392 18.5776 22.2231 20.6943 22.2231H32.7374V22.2231ZM16.0517 22.2231C15.2856 23.1468 14.7931 24.3025 14.6946 25.5721L14.6727 26.0536V36.4486C14.6727 38.3026 15.0929 40.058 15.8415 41.6253C14.5441 41.9724 13.1843 42.0164 11.8672 41.754C10.5501 41.4916 9.31092 40.9298 8.24559 40.112C7.18026 39.2943 6.31728 38.2424 5.72339 37.0379C5.12949 35.8333 4.82058 34.5083 4.82056 33.1653V26.0536C4.82059 25.0923 5.18209 24.1661 5.8333 23.459C6.48451 22.7518 7.37781 22.3153 8.33588 22.2362L8.65108 22.2231H16.0517V22.2231ZM37.38 22.2231H44.7675C46.8819 22.2231 48.598 23.9392 48.598 26.0536V33.1675C48.5983 34.5096 48.29 35.8338 47.697 37.0379C47.104 38.2419 46.2422 39.2935 45.178 40.1114C44.1139 40.9293 42.876 41.4916 41.5599 41.7548C40.2438 42.0181 38.8848 41.9752 37.588 41.6296C38.2446 40.255 38.6474 38.7403 38.7371 37.1381L38.7568 36.4486V26.0536C38.7568 24.598 38.2403 23.2628 37.3778 22.2231H37.38ZM26.7093 6.901C28.4508 6.901 30.1211 7.59284 31.3526 8.82432C32.5841 10.0558 33.2759 11.726 33.2759 13.4676C33.2759 15.2092 32.5841 16.8794 31.3526 18.1109C30.1211 19.3424 28.4508 20.0342 26.7093 20.0342C24.9677 20.0342 23.2975 19.3424 22.066 18.1109C20.8345 16.8794 20.1427 15.2092 20.1427 13.4676C20.1427 11.726 20.8345 10.0558 22.066 8.82432C23.2975 7.59284 24.9677 6.901 26.7093 6.901V6.901ZM40.9369 9.08987C42.3883 9.08987 43.7801 9.6664 44.8064 10.6926C45.8326 11.7189 46.4091 13.1107 46.4091 14.5621C46.4091 16.0134 45.8326 17.4052 44.8064 18.4315C43.7801 19.4577 42.3883 20.0342 40.9369 20.0342C39.4856 20.0342 38.0938 19.4577 37.0675 18.4315C36.0413 17.4052 35.4648 16.0134 35.4648 14.5621C35.4648 13.1107 36.0413 11.7189 37.0675 10.6926C38.0938 9.6664 39.4856 9.08987 40.9369 9.08987ZM12.4816 9.08987C13.9329 9.08987 15.3248 9.6664 16.351 10.6926C17.3773 11.7189 17.9538 13.1107 17.9538 14.5621C17.9538 16.0134 17.3773 17.4052 16.351 18.4315C15.3248 19.4577 13.9329 20.0342 12.4816 20.0342C11.0303 20.0342 9.63843 19.4577 8.61219 18.4315C7.58596 17.4052 7.00943 16.0134 7.00943 14.5621C7.00943 13.1107 7.58596 11.7189 8.61219 10.6926C9.63843 9.6664 11.0303 9.08987 12.4816 9.08987V9.08987Z" fill="white"/>
</svg>
