<svg width="63" height="63" viewBox="0 0 63 63" fill="none" xmlns="http://www.w3.org/2000/svg">
<path d="M26.7765 30.3104C27.0166 30.5525 27.3024 30.7447 27.6172 30.8759C27.932 31.0071 28.2697 31.0746 28.6108 31.0746C28.9519 31.0746 29.2896 31.0071 29.6044 30.8759C29.9192 30.7447 30.205 30.5525 30.4451 30.3104L40.7795 19.976C41.0204 19.7351 41.2115 19.4492 41.3418 19.1344C41.4722 18.8197 41.5393 18.4824 41.5393 18.1417C41.5393 17.801 41.4722 17.4637 41.3418 17.1489C41.2115 16.8342 41.0204 16.5482 40.7795 16.3073C40.5386 16.0665 40.2526 15.8754 39.9379 15.745C39.6232 15.6146 39.2858 15.5475 38.9452 15.5475C38.6045 15.5475 38.2671 15.6146 37.9524 15.745C37.6377 15.8754 37.3517 16.0665 37.1108 16.3073L28.6108 24.8332L25.278 21.4745C24.7915 20.988 24.1316 20.7147 23.4436 20.7147C22.7556 20.7147 22.0958 20.988 21.6093 21.4745C21.1228 21.961 20.8495 22.6208 20.8495 23.3089C20.8495 23.9969 21.1228 24.6567 21.6093 25.1432L26.7765 30.3104ZM54.4467 36.2268H51.8631V10.3909H54.4467C55.1319 10.3909 55.789 10.1187 56.2735 9.63421C56.7581 9.1497 57.0303 8.49255 57.0303 7.80734C57.0303 7.12213 56.7581 6.46499 56.2735 5.98047C55.789 5.49595 55.1319 5.22375 54.4467 5.22375H7.94211C7.2569 5.22375 6.59975 5.49595 6.11524 5.98047C5.63072 6.46499 5.35852 7.12213 5.35852 7.80734C5.35852 8.49255 5.63072 9.1497 6.11524 9.63421C6.59975 10.1187 7.2569 10.3909 7.94211 10.3909H10.5257V36.2268H7.94211C7.2569 36.2268 6.59975 36.499 6.11524 36.9835C5.63072 37.468 5.35852 38.1252 5.35852 38.8104C5.35852 39.4956 5.63072 40.1527 6.11524 40.6373C6.59975 41.1218 7.2569 41.394 7.94211 41.394H28.6108V44.3651L16.8555 52.1159C16.3732 52.4144 16.0026 52.8633 15.8008 53.3934C15.599 53.9235 15.5772 54.5052 15.7388 55.0489C15.9005 55.5925 16.2365 56.0679 16.6951 56.4016C17.1537 56.7354 17.7094 56.9089 18.2765 56.8955C18.7844 56.9013 19.2814 56.7477 19.6974 56.4563L28.6108 50.5657V54.3119C28.6108 54.9971 28.883 55.6543 29.3675 56.1388C29.852 56.6233 30.5092 56.8955 31.1944 56.8955C31.8796 56.8955 32.5367 56.6233 33.0213 56.1388C33.5058 55.6543 33.778 54.9971 33.778 54.3119V50.5657L42.6914 56.4563C43.1074 56.7477 43.6044 56.9013 44.1123 56.8955C44.6643 56.8912 45.2004 56.7103 45.6421 56.3792C46.0837 56.0481 46.4078 55.5842 46.5666 55.0556C46.7255 54.527 46.7109 53.9613 46.525 53.4416C46.339 52.9219 45.9915 52.4754 45.5333 52.1675L33.778 44.4168V41.394H54.4467C55.1319 41.394 55.789 41.1218 56.2735 40.6373C56.7581 40.1527 57.0303 39.4956 57.0303 38.8104C57.0303 38.1252 56.7581 37.468 56.2735 36.9835C55.789 36.499 55.1319 36.2268 54.4467 36.2268ZM46.6959 36.2268H15.6929V10.3909H46.6959V36.2268Z" fill="white"/>
</svg>
