<svg width="55" height="54" viewBox="0 0 55 54" fill="none" xmlns="http://www.w3.org/2000/svg">
<path d="M37.5058 22.1927C37.5058 21.7502 37.6816 21.3258 37.9945 21.0129C38.3074 20.7 38.7318 20.5242 39.1743 20.5242H42.5115C42.954 20.5242 43.3784 20.7 43.6913 21.0129C44.0042 21.3258 44.18 21.7502 44.18 22.1927V25.5299C44.18 25.9724 44.0042 26.3968 43.6913 26.7097C43.3784 27.0226 42.954 27.1984 42.5115 27.1984H39.1743C38.7318 27.1984 38.3074 27.0226 37.9945 26.7097C37.6816 26.3968 37.5058 25.9724 37.5058 25.5299V22.1927ZM27.4944 22.1927C27.4944 21.7502 27.6702 21.3258 27.9831 21.0129C28.296 20.7 28.7204 20.5242 29.1629 20.5242H32.5001C32.9426 20.5242 33.367 20.7 33.6799 21.0129C33.9929 21.3258 34.1686 21.7502 34.1686 22.1927V25.5299C34.1686 25.9724 33.9929 26.3968 33.6799 26.7097C33.367 27.0226 32.9426 27.1984 32.5001 27.1984H29.1629C28.7204 27.1984 28.296 27.0226 27.9831 26.7097C27.6702 26.3968 27.4944 25.9724 27.4944 25.5299V22.1927ZM10.8087 32.2041C10.8087 31.7616 10.9845 31.3372 11.2974 31.0243C11.6103 30.7114 12.0348 30.5356 12.4773 30.5356H15.8144C16.2569 30.5356 16.6814 30.7114 16.9943 31.0243C17.3072 31.3372 17.483 31.7616 17.483 32.2041V35.5413C17.483 35.9838 17.3072 36.4082 16.9943 36.7211C16.6814 37.034 16.2569 37.2098 15.8144 37.2098H12.4773C12.0348 37.2098 11.6103 37.034 11.2974 36.7211C10.9845 36.4082 10.8087 35.9838 10.8087 35.5413V32.2041ZM20.8201 32.2041C20.8201 31.7616 20.9959 31.3372 21.3088 31.0243C21.6217 30.7114 22.0461 30.5356 22.4887 30.5356H25.8258C26.2683 30.5356 26.6928 30.7114 27.0057 31.0243C27.3186 31.3372 27.4944 31.7616 27.4944 32.2041V35.5413C27.4944 35.9838 27.3186 36.4082 27.0057 36.7211C26.6928 37.034 26.2683 37.2098 25.8258 37.2098H22.4887C22.0461 37.2098 21.6217 37.034 21.3088 36.7211C20.9959 36.4082 20.8201 35.9838 20.8201 35.5413V32.2041Z" fill="white"/>
<path d="M12.4773 0.501465C12.9199 0.501465 13.3443 0.67726 13.6572 0.990177C13.9701 1.30309 14.1459 1.7275 14.1459 2.17003V3.8386H40.843V2.17003C40.843 1.7275 41.0187 1.30309 41.3317 0.990177C41.6446 0.67726 42.069 0.501465 42.5115 0.501465C42.9541 0.501465 43.3785 0.67726 43.6914 0.990177C44.0043 1.30309 44.1801 1.7275 44.1801 2.17003V3.8386H47.5172C49.2873 3.8386 50.985 4.54178 52.2366 5.79344C53.4883 7.04511 54.1915 8.74274 54.1915 10.5129V47.2213C54.1915 48.9914 53.4883 50.6891 52.2366 51.9407C50.985 53.1924 49.2873 53.8956 47.5172 53.8956H7.47163C5.7015 53.8956 4.00388 53.1924 2.75221 51.9407C1.50054 50.6891 0.797363 48.9914 0.797363 47.2213V10.5129C0.797363 8.74274 1.50054 7.04511 2.75221 5.79344C4.00388 4.54178 5.7015 3.8386 7.47163 3.8386H10.8088V2.17003C10.8088 1.7275 10.9846 1.30309 11.2975 0.990177C11.6104 0.67726 12.0348 0.501465 12.4773 0.501465V0.501465ZM4.1345 13.85V47.2213C4.1345 48.1064 4.48609 48.9552 5.11192 49.581C5.73775 50.2069 6.58657 50.5585 7.47163 50.5585H47.5172C48.4023 50.5585 49.2511 50.2069 49.8769 49.581C50.5028 48.9552 50.8544 48.1064 50.8544 47.2213V13.85H4.1345Z" fill="white"/>
</svg>
