<svg width="58" height="59" viewBox="0 0 58 59" fill="none" xmlns="http://www.w3.org/2000/svg">
<g clip-path="url(#clip0_69_437)">
<path d="M25.2803 51.5273C25.2803 51.5273 21.6741 51.5273 21.6741 47.921C21.6741 44.3148 25.2803 33.496 39.7054 33.496C54.1304 33.496 57.7366 44.3148 57.7366 47.921C57.7366 51.5273 54.1304 51.5273 54.1304 51.5273H25.2803ZM39.7054 29.8897C42.5747 29.8897 45.3265 28.7499 47.3554 26.721C49.3843 24.6921 50.5241 21.9403 50.5241 19.071C50.5241 16.2017 49.3843 13.4499 47.3554 11.4209C45.3265 9.39203 42.5747 8.2522 39.7054 8.2522C36.836 8.2522 34.0842 9.39203 32.0553 11.4209C30.0264 13.4499 28.8866 16.2017 28.8866 19.071C28.8866 21.9403 30.0264 24.6921 32.0553 26.721C34.0842 28.7499 36.836 29.8897 39.7054 29.8897V29.8897Z" fill="white"/>
<path fill-rule="evenodd" clip-rule="evenodd" d="M18.8467 51.527C18.3121 50.4011 18.0455 49.1668 18.0678 47.9207C18.0678 43.0342 20.52 38.0035 25.0495 34.5054C22.7887 33.8088 20.4333 33.4682 18.0678 33.4957C3.64276 33.4957 0.036499 44.3145 0.036499 47.9207C0.036499 51.527 3.64276 51.527 3.64276 51.527H18.8467Z" fill="white"/>
<path d="M16.2647 29.8897C18.6558 29.8897 20.9489 28.9398 22.6397 27.2491C24.3304 25.5583 25.2803 23.2651 25.2803 20.874C25.2803 18.4829 24.3304 16.1898 22.6397 14.499C20.9489 12.8083 18.6558 11.8584 16.2647 11.8584C13.8736 11.8584 11.5804 12.8083 9.88964 14.499C8.19888 16.1898 7.24902 18.4829 7.24902 20.874C7.24902 23.2651 8.19888 25.5583 9.88964 27.2491C11.5804 28.9398 13.8736 29.8897 16.2647 29.8897V29.8897Z" fill="white"/>
</g>
<defs>
<clipPath id="clip0_69_437">
<rect x="0.036499" y="0.501465" width="57.7001" height="57.7001" rx="20" fill="white"/>
</clipPath>
</defs>
</svg>
