<svg width="56" height="56" viewBox="0 0 56 56" fill="none" xmlns="http://www.w3.org/2000/svg">
<path d="M49.8571 15.6445H6.62123C5.85785 15.6445 5.12574 15.9478 4.58596 16.4876C4.04617 17.0274 3.74292 17.7595 3.74292 18.5228V46.4485C3.74292 47.2119 4.04617 47.944 4.58596 48.4838C5.12574 49.0236 5.85785 49.3268 6.62123 49.3268H49.8571C50.6204 49.3268 51.3526 49.0236 51.8923 48.4838C52.4321 47.944 52.7354 47.2119 52.7354 46.4485V18.5228C52.7354 17.7595 52.4321 17.0274 51.8923 16.4876C51.3526 15.9478 50.6204 15.6445 49.8571 15.6445V15.6445ZM37.7008 33.7564L22.7428 40.4317C22.5099 40.5364 22.2545 40.5811 21.9999 40.5619C21.7452 40.5427 21.4994 40.4601 21.2849 40.3216C21.0703 40.1831 20.8938 39.9932 20.7714 39.7691C20.649 39.545 20.5846 39.2938 20.5841 39.0384V25.688C20.5846 25.4326 20.649 25.1815 20.7714 24.9573C20.8938 24.7332 21.0703 24.5433 21.2849 24.4048C21.4994 24.2663 21.7452 24.1837 21.9999 24.1645C22.2545 24.1453 22.5099 24.1901 22.7428 24.2948L37.7008 30.9547C37.9725 31.0745 38.2035 31.2707 38.3656 31.5194C38.5278 31.7681 38.6141 32.0586 38.6141 32.3556C38.6141 32.6525 38.5278 32.943 38.3656 33.1917C38.2035 33.4404 37.9725 33.6366 37.7008 33.7564V33.7564Z" fill="white"/>
<path d="M46.8256 4.92738C46.8256 4.52133 46.6643 4.13191 46.3772 3.84479C46.0901 3.55767 45.7007 3.39636 45.2946 3.39636H11.6123C11.2063 3.39636 10.8168 3.55767 10.5297 3.84479C10.2426 4.13191 10.0813 4.52133 10.0813 4.92738V6.45839H46.8256V4.92738Z" fill="white"/>
<path d="M49.857 11.0514C49.857 10.6453 49.6957 10.2559 49.4086 9.96881C49.1215 9.68169 48.7321 9.52039 48.326 9.52039H8.51966C8.11361 9.52039 7.72419 9.68169 7.43707 9.96881C7.14995 10.2559 6.98865 10.6453 6.98865 11.0514V12.5824H49.857V11.0514Z" fill="white"/>
</svg>
