<svg width="82" height="73" viewBox="0 0 82 73" fill="none" xmlns="http://www.w3.org/2000/svg">
<g clip-path="url(#clip0_25_268)">
<path d="M39.823 21.0584L13.6356 42.6268V65.9053C13.6356 66.5081 13.875 67.0861 14.3012 67.5123C14.7274 67.9385 15.3055 68.1779 15.9082 68.1779L31.8249 68.1367C32.4257 68.1337 33.0008 67.893 33.4245 67.4671C33.8483 67.0412 34.0861 66.4649 34.0861 65.8641V52.2697C34.0861 51.667 34.3256 51.089 34.7518 50.6628C35.178 50.2366 35.756 49.9971 36.3587 49.9971H45.4491C46.0519 49.9971 46.6299 50.2366 47.0561 50.6628C47.4823 51.089 47.7217 51.667 47.7217 52.2697V65.8542C47.7208 66.1532 47.7789 66.4495 47.8927 66.7261C48.0065 67.0026 48.1737 67.254 48.3848 67.4658C48.596 67.6775 48.8468 67.8456 49.123 67.9602C49.3992 68.0749 49.6953 68.1339 49.9943 68.1339L65.9054 68.1779C66.5081 68.1779 67.0861 67.9385 67.5123 67.5123C67.9385 67.0861 68.178 66.5081 68.178 65.9053V42.6112L41.9962 21.0584C41.6884 20.8103 41.305 20.675 40.9096 20.675C40.5143 20.675 40.1308 20.8103 39.823 21.0584V21.0584ZM81.1886 35.7181L69.3143 25.9303V6.2567C69.3143 5.80465 69.1347 5.37111 68.815 5.05147C68.4954 4.73182 68.0619 4.55225 67.6098 4.55225H59.6557C59.2037 4.55225 58.7701 4.73182 58.4505 5.05147C58.1308 5.37111 57.9513 5.80465 57.9513 6.2567V16.57L45.2347 6.10756C44.0143 5.10332 42.4829 4.55425 40.9025 4.55425C39.3221 4.55425 37.7907 5.10332 36.5704 6.10756L0.616435 35.7181C0.443842 35.8608 0.301048 36.036 0.196213 36.2339C0.0913782 36.4317 0.0265564 36.6483 0.00545163 36.8712C-0.0156532 37.0942 0.00737269 37.3191 0.0732135 37.5331C0.139054 37.7471 0.24642 37.946 0.389175 38.1185L4.01113 42.5217C4.1535 42.6948 4.32861 42.8381 4.52644 42.9435C4.72427 43.0488 4.94094 43.1141 5.16404 43.1356C5.38713 43.1571 5.61228 43.1344 5.8266 43.0688C6.04091 43.0032 6.24017 42.896 6.41298 42.7532L39.823 15.2349C40.1308 14.9868 40.5143 14.8515 40.9096 14.8515C41.305 14.8515 41.6884 14.9868 41.9962 15.2349L75.4077 42.7532C75.5802 42.896 75.7791 43.0033 75.9931 43.0692C76.2072 43.135 76.4321 43.1581 76.655 43.1369C76.8779 43.1158 77.0945 43.051 77.2923 42.9462C77.4902 42.8414 77.6654 42.6986 77.8081 42.526L81.4301 38.1228C81.5727 37.9493 81.6796 37.7493 81.7446 37.5344C81.8097 37.3194 81.8316 37.0937 81.8092 36.8703C81.7868 36.6468 81.7204 36.43 81.6139 36.2322C81.5074 36.0345 81.3628 35.8598 81.1886 35.7181V35.7181Z" fill="white"/>
</g>
<defs>
<clipPath id="clip0_25_268">
<rect width="81.8136" height="72.7232" rx="20" fill="white"/>
</clipPath>
</defs>
</svg>
