<svg width="64" height="64" viewBox="0 0 64 64" fill="none" xmlns="http://www.w3.org/2000/svg">
<path d="M49.2738 52.5566H15.2207L7.3623 60.415V15.884C7.3623 11.5619 10.8986 8.02563 15.2207 8.02563H49.2738C53.5959 8.02563 57.1322 11.5619 57.1322 15.884V44.6982C57.1322 49.0203 53.5959 52.5566 49.2738 52.5566Z" fill="white"/>
<path d="M29.6278 26.3618H34.8667V40.7689H29.6278V26.3618Z" fill="#D7AB97"/>
<path d="M32.2473 22.4327C33.694 22.4327 34.8667 21.2599 34.8667 19.8132C34.8667 18.3665 33.694 17.1937 32.2473 17.1937C30.8006 17.1937 29.6278 18.3665 29.6278 19.8132C29.6278 21.2599 30.8006 22.4327 32.2473 22.4327Z" fill="#D7AB97"/>
</svg>
