<svg width="58" height="58" viewBox="0 0 58 58" fill="none" xmlns="http://www.w3.org/2000/svg">
<path d="M52.2998 28.6149C52.2998 15.5348 41.697 4.93201 28.617 4.93201C15.5369 4.93201 4.93408 15.5348 4.93408 28.6149C4.93408 32.506 5.87429 36.2645 7.64577 39.6274L5.00276 49.7874C4.91486 50.1267 4.91708 50.4831 5.00921 50.8213C5.10134 51.1595 5.28018 51.4678 5.52804 51.7156C5.7759 51.9635 6.08418 52.1423 6.42239 52.2345C6.76059 52.3266 7.11698 52.3288 7.45631 52.2409L17.6163 49.5955C21.0092 51.3765 24.785 52.3039 28.617 52.2978C41.697 52.2978 52.2998 41.6949 52.2998 28.6149ZM28.617 19.1417C29.8732 19.1417 31.0779 19.6408 31.9662 20.529C32.8545 21.4173 33.3535 22.6221 33.3535 23.8783V33.3515C33.3535 34.6077 32.8545 35.8124 31.9662 36.7007C31.0779 37.589 29.8732 38.088 28.617 38.088H21.5121C20.2559 38.088 19.0511 37.589 18.1628 36.7007C17.2746 35.8124 16.7755 34.6077 16.7755 33.3515V23.8783C16.7755 22.6221 17.2746 21.4173 18.1628 20.529C19.0511 19.6408 20.2559 19.1417 21.5121 19.1417H28.617ZM35.7218 31.3668V25.8629L39.8284 21.9742C40.0806 21.7352 40.3972 21.5753 40.7393 21.5145C41.0813 21.4536 41.4337 21.4944 41.7528 21.6318C42.0719 21.7691 42.3437 21.9971 42.5346 22.2873C42.7255 22.5776 42.827 22.9175 42.8267 23.2649V33.9648C42.827 34.3123 42.7255 34.6521 42.5346 34.9424C42.3437 35.2327 42.0719 35.4606 41.7528 35.598C41.4337 35.7354 41.0813 35.7762 40.7393 35.7153C40.3972 35.6544 40.0806 35.4946 39.8284 35.2556L35.7218 31.3668V31.3668Z" fill="white"/>
</svg>
