<svg width="1728" height="1117" viewBox="0 0 1728 1117" fill="none" xmlns="http://www.w3.org/2000/svg">
<rect width="1728" height="1117" fill="#A98062"/>
<line x1="83" y1="1116" x2="83" y2="1" stroke="#F2DBD0" stroke-width="2" stroke-linecap="round"/>
<line x1="203" y1="1116" x2="203" y2="1" stroke="#F2DBD0" stroke-width="2" stroke-linecap="round"/>
<line x1="323" y1="1116" x2="323" y2="1" stroke="#F2DBD0" stroke-width="2" stroke-linecap="round"/>
<line x1="443" y1="1116" x2="443" y2="1" stroke="#F2DBD0" stroke-width="2" stroke-linecap="round"/>
<line x1="563" y1="1116" x2="563" y2="1" stroke="#F2DBD0" stroke-width="2" stroke-linecap="round"/>
<line x1="683" y1="1116" x2="683" y2="1" stroke="#F2DBD0" stroke-width="2" stroke-linecap="round"/>
<line x1="803" y1="1116" x2="803" y2="1" stroke="#F2DBD0" stroke-width="2" stroke-linecap="round"/>
<line x1="923" y1="1116" x2="923" y2="1" stroke="#F2DBD0" stroke-width="2" stroke-linecap="round"/>
<line x1="1043" y1="1116" x2="1043" y2="1" stroke="#F2DBD0" stroke-width="2" stroke-linecap="round"/>
<line x1="1163" y1="1116" x2="1163" y2="1" stroke="#F2DBD0" stroke-width="2" stroke-linecap="round"/>
<line x1="1283" y1="1116" x2="1283" y2="1" stroke="#F2DBD0" stroke-width="2" stroke-linecap="round"/>
<line x1="1403" y1="1116" x2="1403" y2="1" stroke="#F2DBD0" stroke-width="2" stroke-linecap="round"/>
<line x1="1523" y1="1116" x2="1523" y2="1" stroke="#F2DBD0" stroke-width="2" stroke-linecap="round"/>
<line x1="1643" y1="1116" x2="1643" y2="1" stroke="#F2DBD0" stroke-width="2" stroke-linecap="round"/>
<line y1="82" x2="1728.02" y2="82" stroke="#F2DBD0" stroke-width="2"/>
<line y1="201" x2="1728.02" y2="201" stroke="#F2DBD0" stroke-width="2"/>
<line y1="320" x2="1728.02" y2="320" stroke="#F2DBD0" stroke-width="2"/>
<line y1="439" x2="1728.02" y2="439" stroke="#F2DBD0" stroke-width="2"/>
<line y1="558" x2="1728.02" y2="558" stroke="#F2DBD0" stroke-width="2"/>
<line y1="677" x2="1728.02" y2="677" stroke="#F2DBD0" stroke-width="2"/>
<line y1="796" x2="1728.02" y2="796" stroke="#F2DBD0" stroke-width="2"/>
<line y1="915" x2="1728.02" y2="915" stroke="#F2DBD0" stroke-width="2"/>
<line y1="1034" x2="1728.02" y2="1034" stroke="#F2DBD0" stroke-width="2"/>
<rect width="1728" height="1117" fill="url(#paint0_radial_25_240)"/>
<defs>
<radialGradient id="paint0_radial_25_240" cx="0" cy="0" r="1" gradientUnits="userSpaceOnUse" gradientTransform="translate(864 559) rotate(90) scale(701 1084.45)">
<stop stop-color="white" stop-opacity="0.75"/>
<stop offset="0.794792" stop-color="white" stop-opacity="0"/>
</radialGradient>
</defs>
</svg>
